<?xml version="1.0" standalone="no"?>
<!DOCTYPE svg PUBLIC "-//W3C//DTD SVG 20010904//EN"
 "http://www.w3.org/TR/2001/REC-SVG-20010904/DTD/svg10.dtd">
<svg version="1.0" xmlns="http://www.w3.org/2000/svg"
 width="70.000000pt" height="70.000000pt" viewBox="0 0 70.000000 70.000000"
 preserveAspectRatio="xMidYMid meet">
<metadata>
Created by potrace 1.14, written by Peter Selinger 2001-2017
</metadata>
<g transform="translate(0.000000,70.000000) scale(0.100000,-0.100000)"
fill="#000000" stroke="none">
<path d="M0 350 l0 -350 350 0 350 0 0 350 0 350 -350 0 -350 0 0 -350z m270
175 c37 -19 60 -63 60 -115 0 -32 -7 -48 -33 -77 -29 -31 -41 -37 -88 -40 -88
-8 -149 46 -149 131 0 31 7 45 39 77 35 35 44 39 90 39 29 0 65 -7 81 -15z
m326 -18 c88 -80 32 -216 -89 -217 -80 0 -137 51 -137 125 0 80 49 124 138
125 45 0 57 -4 88 -33z m-308 -320 c74 -30 142 -17 192 36 29 31 50 35 50 8 0
-25 -61 -70 -119 -88 -74 -23 -154 -1 -230 63 -25 21 -29 29 -20 40 9 12 17 9
48 -14 20 -16 55 -36 79 -45z"/>
<path d="M155 465 c-46 -45 -22 -115 39 -115 40 0 66 26 66 66 0 35 -8 47 -37
63 -31 16 -41 14 -68 -14z"/>
<path d="M475 478 c-28 -16 -35 -28 -35 -64 0 -60 75 -90 112 -44 25 31 23 66
-7 95 -27 28 -40 30 -70 13z"/>
</g>
</svg>
